<svg width="40" height="40" viewBox="0 0 40 40" fill="none" xmlns="http://www.w3.org/2000/svg">
<rect width="40" height="40" rx="8" fill="#FDF2F8"/>
<path d="M20 30C18.6333 30 17.3417 29.7375 16.125 29.2125C14.9083 28.6875 13.8458 27.9708 12.9375 27.0625C12.0292 26.1542 11.3125 25.0917 10.7875 23.875C10.2625 22.6583 10 21.3667 10 20C10 18.6167 10.2708 17.3167 10.8125 16.1C11.3542 14.8833 12.0875 13.825 13.0125 12.925C13.9375 12.025 15.0167 11.3125 16.25 10.7875C17.4833 10.2625 18.8 10 20.2 10C21.5333 10 22.7917 10.2292 23.975 10.6875C25.1583 11.1458 26.1958 11.7792 27.0875 12.5875C27.9792 13.3958 28.6875 14.3542 29.2125 15.4625C29.7375 16.5708 30 17.7667 30 19.05C30 20.9667 29.4167 22.4375 28.25 23.4625C27.0833 24.4875 25.6667 25 24 25H22.15C22 25 21.8958 25.0417 21.8375 25.125C21.7792 25.2083 21.75 25.3 21.75 25.4C21.75 25.6 21.875 25.8875 22.125 26.2625C22.375 26.6375 22.5 27.0667 22.5 27.55C22.5 28.3833 22.2708 29 21.8125 29.4C21.3542 29.8 20.75 30 20 30ZM14.5 21C14.9333 21 15.2917 20.8583 15.575 20.575C15.8583 20.2917 16 19.9333 16 19.5C16 19.0667 15.8583 18.7083 15.575 18.425C15.2917 18.1417 14.9333 18 14.5 18C14.0667 18 13.7083 18.1417 13.425 18.425C13.1417 18.7083 13 19.0667 13 19.5C13 19.9333 13.1417 20.2917 13.425 20.575C13.7083 20.8583 14.0667 21 14.5 21ZM17.5 17C17.9333 17 18.2917 16.8583 18.575 16.575C18.8583 16.2917 19 15.9333 19 15.5C19 15.0667 18.8583 14.7083 18.575 14.425C18.2917 14.1417 17.9333 14 17.5 14C17.0667 14 16.7083 14.1417 16.425 14.425C16.1417 14.7083 16 15.0667 16 15.5C16 15.9333 16.1417 16.2917 16.425 16.575C16.7083 16.8583 17.0667 17 17.5 17ZM22.5 17C22.9333 17 23.2917 16.8583 23.575 16.575C23.8583 16.2917 24 15.9333 24 15.5C24 15.0667 23.8583 14.7083 23.575 14.425C23.2917 14.1417 22.9333 14 22.5 14C22.0667 14 21.7083 14.1417 21.425 14.425C21.1417 14.7083 21 15.0667 21 15.5C21 15.9333 21.1417 16.2917 21.425 16.575C21.7083 16.8583 22.0667 17 22.5 17ZM25.5 21C25.9333 21 26.2917 20.8583 26.575 20.575C26.8583 20.2917 27 19.9333 27 19.5C27 19.0667 26.8583 18.7083 26.575 18.425C26.2917 18.1417 25.9333 18 25.5 18C25.0667 18 24.7083 18.1417 24.425 18.425C24.1417 18.7083 24 19.0667 24 19.5C24 19.9333 24.1417 20.2917 24.425 20.575C24.7083 20.8583 25.0667 21 25.5 21ZM20 28C20.15 28 20.2708 27.9583 20.3625 27.875C20.4542 27.7917 20.5 27.6833 20.5 27.55C20.5 27.3167 20.375 27.0417 20.125 26.725C19.875 26.4083 19.75 25.9333 19.75 25.3C19.75 24.6 19.9917 24.0417 20.475 23.625C20.9583 23.2083 21.55 23 22.25 23H24C25.1 23 26.0417 22.6792 26.825 22.0375C27.6083 21.3958 28 20.4 28 19.05C28 17.0333 27.2292 15.3542 25.6875 14.0125C24.1458 12.6708 22.3167 12 20.2 12C17.9333 12 16 12.775 14.4 14.325C12.8 15.875 12 17.7667 12 20C12 22.2167 12.7792 24.1042 14.3375 25.6625C15.8958 27.2208 17.7833 28 20 28Z" fill="#DB2777"/>
</svg>
