<svg width="20" height="20" viewBox="0 0 20 20" fill="none" xmlns="http://www.w3.org/2000/svg">
<mask id="mask0_139_485" style="mask-type:alpha" maskUnits="userSpaceOnUse" x="0" y="0" width="20" height="20">
<rect width="20" height="20" fill="#D9D9D9"/>
</mask>
<g mask="url(#mask0_139_485)">
<path d="M16.0834 13.75L13.4167 11.0833C13.5279 10.8472 13.6112 10.6077 13.6667 10.365C13.7223 10.1216 13.7501 9.86108 13.7501 9.5833C13.7501 8.54164 13.3856 7.65608 12.6567 6.92664C11.9273 6.19775 11.0417 5.8333 10.0001 5.8333C9.7223 5.8333 9.46175 5.86108 9.21841 5.91664C8.97564 5.97219 8.73619 6.05553 8.50008 6.16664L6.37508 4.04164C6.94453 3.80553 7.52786 3.6283 8.12508 3.50997C8.7223 3.39219 9.3473 3.3333 10.0001 3.3333C11.9862 3.3333 13.7709 3.85747 15.3542 4.9058C16.9376 5.95469 18.1251 7.31941 18.9167 8.99997C18.9584 9.06941 18.9862 9.15608 19.0001 9.25997C19.014 9.36441 19.0209 9.47219 19.0209 9.5833C19.0209 9.69441 19.0106 9.80191 18.9901 9.9058C18.969 10.0102 18.9445 10.0972 18.9167 10.1666C18.5973 10.875 18.1981 11.5347 17.7192 12.1458C17.2398 12.7569 16.6945 13.2916 16.0834 13.75ZM15.9167 18.25L13.0001 15.375C12.514 15.5277 12.0245 15.6425 11.5317 15.7191C11.0384 15.7952 10.5279 15.8333 10.0001 15.8333C8.01397 15.8333 6.22925 15.3091 4.64591 14.2608C3.06258 13.2119 1.87508 11.8472 1.08341 10.1666C1.04175 10.0972 1.01397 10.0102 1.00008 9.9058C0.986193 9.80191 0.979248 9.69441 0.979248 9.5833C0.979248 9.47219 0.986193 9.36803 1.00008 9.2708C1.01397 9.17358 1.04175 9.09025 1.08341 9.0208C1.37508 8.3958 1.7223 7.81941 2.12508 7.29164C2.52786 6.76386 2.9723 6.27775 3.45841 5.8333L1.72925 4.0833C1.57647 3.93053 1.50008 3.73941 1.50008 3.50997C1.50008 3.28108 1.58341 3.0833 1.75008 2.91664C1.90286 2.76386 2.0973 2.68747 2.33341 2.68747C2.56953 2.68747 2.76397 2.76386 2.91675 2.91664L17.0834 17.0833C17.2362 17.2361 17.3162 17.4272 17.3234 17.6566C17.3301 17.8855 17.2501 18.0833 17.0834 18.25C16.9306 18.4027 16.7362 18.4791 16.5001 18.4791C16.264 18.4791 16.0695 18.4027 15.9167 18.25ZM10.0001 13.3333C10.1529 13.3333 10.2951 13.3264 10.4267 13.3125C10.559 13.2986 10.7015 13.2708 10.8542 13.2291L6.35425 8.72914C6.31258 8.88191 6.2848 9.02441 6.27092 9.15664C6.25703 9.2883 6.25008 9.43052 6.25008 9.5833C6.25008 10.625 6.61453 11.5105 7.34341 12.24C8.07286 12.9689 8.95841 13.3333 10.0001 13.3333ZM12.2084 9.87497L9.70841 7.37497C10.5001 7.24997 11.1459 7.47219 11.6459 8.04164C12.1459 8.61108 12.3334 9.22219 12.2084 9.87497Z" fill="#616161"/>
</g>
</svg>
