<svg width="20" height="20" viewBox="0 0 20 20" fill="none" xmlns="http://www.w3.org/2000/svg">
<mask id="mask0_139_480" style="mask-type:alpha" maskUnits="userSpaceOnUse" x="0" y="0" width="20" height="20">
<rect width="20" height="20" fill="#D9D9D9"/>
</mask>
<g mask="url(#mask0_139_480)">
<path d="M4.99992 18.3333C4.54159 18.3333 4.14936 18.1703 3.82325 17.8442C3.49659 17.5175 3.33325 17.125 3.33325 16.6667V8.33334C3.33325 7.87501 3.49659 7.48251 3.82325 7.15584C4.14936 6.82973 4.54159 6.66668 4.99992 6.66668H5.83325V5.00001C5.83325 3.84723 6.23964 2.86445 7.05242 2.05168C7.86464 1.23945 8.84714 0.833344 9.99992 0.833344C11.1527 0.833344 12.1355 1.23945 12.9483 2.05168C13.7605 2.86445 14.1666 3.84723 14.1666 5.00001V6.66668H14.9999C15.4583 6.66668 15.8508 6.82973 16.1774 7.15584C16.5035 7.48251 16.6666 7.87501 16.6666 8.33334V16.6667C16.6666 17.125 16.5035 17.5175 16.1774 17.8442C15.8508 18.1703 15.4583 18.3333 14.9999 18.3333H4.99992ZM9.99992 14.1667C10.4583 14.1667 10.8508 14.0036 11.1774 13.6775C11.5035 13.3508 11.6666 12.9583 11.6666 12.5C11.6666 12.0417 11.5035 11.6492 11.1774 11.3225C10.8508 10.9964 10.4583 10.8333 9.99992 10.8333C9.54158 10.8333 9.14936 10.9964 8.82325 11.3225C8.49659 11.6492 8.33325 12.0417 8.33325 12.5C8.33325 12.9583 8.49659 13.3508 8.82325 13.6775C9.14936 14.0036 9.54158 14.1667 9.99992 14.1667ZM7.49992 6.66668H12.4999V5.00001C12.4999 4.30557 12.2569 3.71529 11.7708 3.22918C11.2846 2.74307 10.6944 2.50001 9.99992 2.50001C9.30547 2.50001 8.7152 2.74307 8.22908 3.22918C7.74297 3.71529 7.49992 4.30557 7.49992 5.00001V6.66668Z" fill="#616161"/>
</g>
</svg>
