<svg width="40" height="40" viewBox="0 0 40 40" fill="none" xmlns="http://www.w3.org/2000/svg">
<rect width="40" height="40" rx="8" fill="#F0FDFA"/>
<path d="M26 21V19H30V21H26ZM27.2 28L24 25.6L25.2 24L28.4 26.4L27.2 28ZM25.2 16L24 14.4L27.2 12L28.4 13.6L25.2 16ZM13 27V23H12C11.45 23 10.9792 22.8042 10.5875 22.4125C10.1958 22.0208 10 21.55 10 21V19C10 18.45 10.1958 17.9792 10.5875 17.5875C10.9792 17.1958 11.45 17 12 17H16L21 14V26L16 23H15V27H13ZM19 22.45V17.55L16.55 19H12V21H16.55L19 22.45ZM22 23.35V16.65C22.45 17.05 22.8125 17.5375 23.0875 18.1125C23.3625 18.6875 23.5 19.3167 23.5 20C23.5 20.6833 23.3625 21.3125 23.0875 21.8875C22.8125 22.4625 22.45 22.95 22 23.35Z" fill="#0D9488"/>
</svg>
