<svg width="40" height="40" viewBox="0 0 40 40" fill="none" xmlns="http://www.w3.org/2000/svg">
<rect width="40" height="40" rx="8" fill="#FFF7ED"/>
<path d="M13.5766 17.9603L15.5266 18.7853C15.7599 18.3186 16.0016 17.8686 16.2516 17.4353C16.5016 17.002 16.7766 16.5686 17.0766 16.1353L15.6766 15.8603L13.5766 17.9603ZM17.1266 20.0353L19.9766 22.8603C20.6766 22.5936 21.4266 22.1853 22.2266 21.6353C23.0266 21.0853 23.7766 20.4603 24.4766 19.7603C25.6432 18.5936 26.5557 17.2978 27.2141 15.8728C27.8724 14.4478 28.1599 13.1353 28.0766 11.9353C26.8766 11.852 25.5599 12.1395 24.1266 12.7978C22.6932 13.4561 21.3932 14.3686 20.2266 15.5353C19.5266 16.2353 18.9016 16.9853 18.3516 17.7853C17.8016 18.5853 17.3932 19.3353 17.1266 20.0353ZM21.5766 18.4103C21.1932 18.027 21.0016 17.5561 21.0016 16.9978C21.0016 16.4395 21.1932 15.9686 21.5766 15.5853C21.9599 15.202 22.4349 15.0103 23.0016 15.0103C23.5682 15.0103 24.0432 15.202 24.4266 15.5853C24.8099 15.9686 25.0016 16.4395 25.0016 16.9978C25.0016 17.5561 24.8099 18.027 24.4266 18.4103C24.0432 18.7936 23.5682 18.9853 23.0016 18.9853C22.4349 18.9853 21.9599 18.7936 21.5766 18.4103ZM22.0516 26.4353L24.1516 24.3353L23.8766 22.9353C23.4432 23.2353 23.0099 23.5061 22.5766 23.7478C22.1432 23.9895 21.6932 24.227 21.2266 24.4603L22.0516 26.4353ZM29.8766 10.1103C30.1932 12.127 29.9974 14.0895 29.2891 15.9978C28.5807 17.9061 27.3599 19.727 25.6266 21.4603L26.1266 23.9353C26.1932 24.2686 26.1766 24.5936 26.0766 24.9103C25.9766 25.227 25.8099 25.502 25.5766 25.7353L21.3766 29.9353L19.2766 25.0103L15.0016 20.7353L10.0766 18.6353L14.2516 14.4353C14.4849 14.202 14.7641 14.0353 15.0891 13.9353C15.4141 13.8353 15.7432 13.8186 16.0766 13.8853L18.5516 14.3853C20.2849 12.652 22.1016 11.427 24.0016 10.7103C25.9016 9.99362 27.8599 9.79362 29.8766 10.1103ZM11.8516 23.9103C12.4349 23.327 13.1474 23.0311 13.9891 23.0228C14.8307 23.0145 15.5432 23.302 16.1266 23.8853C16.7099 24.4686 16.9974 25.1811 16.9891 26.0228C16.9807 26.8645 16.6849 27.577 16.1016 28.1603C15.6849 28.577 14.9891 28.9353 14.0141 29.2353C13.0391 29.5353 11.6932 29.802 9.97656 30.0353C10.2099 28.3186 10.4766 26.9728 10.7766 25.9978C11.0766 25.0228 11.4349 24.327 11.8516 23.9103ZM13.2766 25.3103C13.1099 25.477 12.9432 25.7811 12.7766 26.2228C12.6099 26.6645 12.4932 27.1103 12.4266 27.5603C12.8766 27.4936 13.3224 27.3811 13.7641 27.2228C14.2057 27.0645 14.5099 26.902 14.6766 26.7353C14.8766 26.5353 14.9849 26.2936 15.0016 26.0103C15.0182 25.727 14.9266 25.4853 14.7266 25.2853C14.5266 25.0853 14.2849 24.9895 14.0016 24.9978C13.7182 25.0061 13.4766 25.1103 13.2766 25.3103Z" fill="#EA580C"/>
</svg>
