<svg width="17" height="17" viewBox="0 0 17 17" fill="none" xmlns="http://www.w3.org/2000/svg">
<path d="M8.29167 13.3333C8.58333 13.3333 8.82986 13.2326 9.03125 13.0312C9.23264 12.8299 9.33333 12.5833 9.33333 12.2917C9.33333 12 9.23264 11.7535 9.03125 11.5521C8.82986 11.3507 8.58333 11.25 8.29167 11.25C8 11.25 7.75347 11.3507 7.55208 11.5521C7.35069 11.7535 7.25 12 7.25 12.2917C7.25 12.5833 7.35069 12.8299 7.55208 13.0312C7.75347 13.2326 8 13.3333 8.29167 13.3333ZM7.54167 10.125H9.08333C9.08333 9.66667 9.13542 9.30556 9.23958 9.04167C9.34375 8.77778 9.63889 8.41667 10.125 7.95833C10.4861 7.59722 10.7708 7.25347 10.9792 6.92708C11.1875 6.60069 11.2917 6.20833 11.2917 5.75C11.2917 4.97222 11.0069 4.375 10.4375 3.95833C9.86806 3.54167 9.19444 3.33333 8.41667 3.33333C7.625 3.33333 6.98264 3.54167 6.48958 3.95833C5.99653 4.375 5.65278 4.875 5.45833 5.45833L6.83333 6C6.90278 5.75 7.05903 5.47917 7.30208 5.1875C7.54514 4.89583 7.91667 4.75 8.41667 4.75C8.86111 4.75 9.19444 4.87153 9.41667 5.11458C9.63889 5.35764 9.75 5.625 9.75 5.91667C9.75 6.19444 9.66667 6.45486 9.5 6.69792C9.33333 6.94097 9.125 7.16667 8.875 7.375C8.26389 7.91667 7.88889 8.32639 7.75 8.60417C7.61111 8.88194 7.54167 9.38889 7.54167 10.125ZM8.33333 16.6667C7.18056 16.6667 6.09722 16.4479 5.08333 16.0104C4.06944 15.5729 3.1875 14.9792 2.4375 14.2292C1.6875 13.4792 1.09375 12.5972 0.65625 11.5833C0.21875 10.5694 0 9.48611 0 8.33333C0 7.18056 0.21875 6.09722 0.65625 5.08333C1.09375 4.06944 1.6875 3.1875 2.4375 2.4375C3.1875 1.6875 4.06944 1.09375 5.08333 0.65625C6.09722 0.21875 7.18056 0 8.33333 0C9.48611 0 10.5694 0.21875 11.5833 0.65625C12.5972 1.09375 13.4792 1.6875 14.2292 2.4375C14.9792 3.1875 15.5729 4.06944 16.0104 5.08333C16.4479 6.09722 16.6667 7.18056 16.6667 8.33333C16.6667 9.48611 16.4479 10.5694 16.0104 11.5833C15.5729 12.5972 14.9792 13.4792 14.2292 14.2292C13.4792 14.9792 12.5972 15.5729 11.5833 16.0104C10.5694 16.4479 9.48611 16.6667 8.33333 16.6667ZM8.33333 15C10.1944 15 11.7708 14.3542 13.0625 13.0625C14.3542 11.7708 15 10.1944 15 8.33333C15 6.47222 14.3542 4.89583 13.0625 3.60417C11.7708 2.3125 10.1944 1.66667 8.33333 1.66667C6.47222 1.66667 4.89583 2.3125 3.60417 3.60417C2.3125 4.89583 1.66667 6.47222 1.66667 8.33333C1.66667 10.1944 2.3125 11.7708 3.60417 13.0625C4.89583 14.3542 6.47222 15 8.33333 15Z" fill="#475569"/>
</svg>
