<svg width="21" height="20" viewBox="0 0 21 20" fill="none" xmlns="http://www.w3.org/2000/svg">
<path d="M8 8C6.9 8 5.95833 7.60833 5.175 6.825C4.39167 6.04167 4 5.1 4 4C4 2.9 4.39167 1.95833 5.175 1.175C5.95833 0.391667 6.9 0 8 0C9.1 0 10.0417 0.391667 10.825 1.175C11.6083 1.95833 12 2.9 12 4C12 5.1 11.6083 6.04167 10.825 6.825C10.0417 7.60833 9.1 8 8 8ZM8 6C8.55 6 9.02083 5.80417 9.4125 5.4125C9.80417 5.02083 10 4.55 10 4C10 3.45 9.80417 2.97917 9.4125 2.5875C9.02083 2.19583 8.55 2 8 2C7.45 2 6.97917 2.19583 6.5875 2.5875C6.19583 2.97917 6 3.45 6 4C6 4.55 6.19583 5.02083 6.5875 5.4125C6.97917 5.80417 7.45 6 8 6ZM19.1 19.5L15.9 16.3C15.55 16.5 15.175 16.6667 14.775 16.8C14.375 16.9333 13.95 17 13.5 17C12.25 17 11.1875 16.5625 10.3125 15.6875C9.4375 14.8125 9 13.75 9 12.5C9 11.25 9.4375 10.1875 10.3125 9.3125C11.1875 8.4375 12.25 8 13.5 8C14.75 8 15.8125 8.4375 16.6875 9.3125C17.5625 10.1875 18 11.25 18 12.5C18 12.95 17.9333 13.375 17.8 13.775C17.6667 14.175 17.5 14.55 17.3 14.9L20.5 18.1L19.1 19.5ZM13.5 15C14.2 15 14.7917 14.7583 15.275 14.275C15.7583 13.7917 16 13.2 16 12.5C16 11.8 15.7583 11.2083 15.275 10.725C14.7917 10.2417 14.2 10 13.5 10C12.8 10 12.2083 10.2417 11.725 10.725C11.2417 11.2083 11 11.8 11 12.5C11 13.2 11.2417 13.7917 11.725 14.275C12.2083 14.7583 12.8 15 13.5 15ZM0 16V13.225C0 12.6583 0.141667 12.1333 0.425 11.65C0.708333 11.1667 1.1 10.8 1.6 10.55C2.45 10.1167 3.40833 9.75 4.475 9.45C5.54167 9.15 6.725 9 8.025 9C7.825 9.3 7.65417 9.62083 7.5125 9.9625C7.37083 10.3042 7.25833 10.6583 7.175 11.025C6.175 11.1083 5.28333 11.2792 4.5 11.5375C3.71667 11.7958 3.05833 12.0667 2.525 12.35C2.35833 12.4333 2.22917 12.5542 2.1375 12.7125C2.04583 12.8708 2 13.0417 2 13.225V14H7.175C7.25833 14.3667 7.37083 14.7167 7.5125 15.05C7.65417 15.3833 7.825 15.7 8.025 16H0Z" fill="#475569"/>
</svg>
